<?xml version="1.0" ?><svg id="Layer_1" style="enable-background:new 0 0 512 512;" version="1.1" viewBox="0 0 512 512" xml:space="preserve" xmlns="http://www.w3.org/2000/svg" xmlns:xlink="http://www.w3.org/1999/xlink"><style type="text/css">
	.st0{fill:#006837;}
	.st1{opacity:0.45;clip-path:url(#XMLID_513_);}
	.st2{fill:#FFFFFF;}
</style><path class="st0" d="M432,512.5H80c-44,0-80-36-80-80v-352c0-44,36-80,80-80h352c44,0,80,36,80,80v352  C512,476.5,476,512.5,432,512.5z" id="XMLID_2_"/><g id="XMLID_511_"><defs><path d="M432,512.5H80c-44,0-80-36-80-80v-352c0-44,36-80,80-80h352c44,0,80,36,80,80v352    C512,476.5,476,512.5,432,512.5z" id="XMLID_510_"/></defs><clipPath id="XMLID_513_"><use style="overflow:visible;" xlink:href="#XMLID_510_"/></clipPath><g class="st1" id="XMLID_13_"><circle cx="258.5" cy="256.5" id="XMLID_22_" r="111.5"/><circle cx="259.2" cy="257.2" id="XMLID_509_" r="111.5"/><circle cx="259.9" cy="257.9" id="XMLID_508_" r="111.5"/><circle cx="260.6" cy="258.6" id="XMLID_507_" r="111.5"/><circle cx="261.3" cy="259.3" id="XMLID_506_" r="111.5"/><circle cx="262" cy="260" id="XMLID_505_" r="111.5"/><circle cx="262.7" cy="260.7" id="XMLID_504_" r="111.5"/><circle cx="263.4" cy="261.4" id="XMLID_503_" r="111.5"/><circle cx="264.2" cy="262.2" id="XMLID_502_" r="111.5"/><circle cx="264.9" cy="262.9" id="XMLID_501_" r="111.5"/><circle cx="265.6" cy="263.6" id="XMLID_500_" r="111.5"/><circle cx="266.3" cy="264.3" id="XMLID_499_" r="111.5"/><circle cx="267" cy="265" id="XMLID_498_" r="111.5"/><circle cx="267.7" cy="265.7" id="XMLID_497_" r="111.5"/><circle cx="268.4" cy="266.4" id="XMLID_496_" r="111.5"/><circle cx="269.1" cy="267.1" id="XMLID_495_" r="111.5"/><circle cx="269.8" cy="267.8" id="XMLID_494_" r="111.5"/><circle cx="270.5" cy="268.5" id="XMLID_493_" r="111.5"/><circle cx="271.2" cy="269.2" id="XMLID_492_" r="111.5"/><circle cx="271.9" cy="269.9" id="XMLID_491_" r="111.5"/><circle cx="272.6" cy="270.6" id="XMLID_490_" r="111.5"/><circle cx="273.3" cy="271.3" id="XMLID_489_" r="111.5"/><circle cx="274.1" cy="272.1" id="XMLID_488_" r="111.5"/><circle cx="274.8" cy="272.8" id="XMLID_487_" r="111.5"/><circle cx="275.5" cy="273.5" id="XMLID_486_" r="111.5"/><circle cx="276.2" cy="274.2" id="XMLID_485_" r="111.5"/><circle cx="276.9" cy="274.9" id="XMLID_484_" r="111.5"/><circle cx="277.6" cy="275.6" id="XMLID_483_" r="111.5"/><circle cx="278.3" cy="276.3" id="XMLID_482_" r="111.5"/><circle cx="279" cy="277" id="XMLID_481_" r="111.5"/><circle cx="279.7" cy="277.7" id="XMLID_480_" r="111.5"/><circle cx="280.4" cy="278.4" id="XMLID_479_" r="111.5"/><circle cx="281.1" cy="279.1" id="XMLID_478_" r="111.5"/><circle cx="281.8" cy="279.8" id="XMLID_477_" r="111.5"/><circle cx="282.5" cy="280.5" id="XMLID_476_" r="111.5"/><circle cx="283.2" cy="281.2" id="XMLID_475_" r="111.5"/><circle cx="284" cy="282" id="XMLID_474_" r="111.5"/><circle cx="284.7" cy="282.7" id="XMLID_473_" r="111.5"/><circle cx="285.4" cy="283.4" id="XMLID_472_" r="111.5"/><circle cx="286.1" cy="284.1" id="XMLID_471_" r="111.5"/><circle cx="286.8" cy="284.8" id="XMLID_470_" r="111.5"/><circle cx="287.5" cy="285.5" id="XMLID_469_" r="111.5"/><circle cx="288.2" cy="286.2" id="XMLID_468_" r="111.5"/><circle cx="288.9" cy="286.9" id="XMLID_467_" r="111.5"/><circle cx="289.6" cy="287.6" id="XMLID_466_" r="111.5"/><circle cx="290.3" cy="288.3" id="XMLID_465_" r="111.5"/><circle cx="291" cy="289" id="XMLID_464_" r="111.5"/><circle cx="291.7" cy="289.7" id="XMLID_463_" r="111.5"/><circle cx="292.4" cy="290.4" id="XMLID_462_" r="111.5"/><circle cx="293.1" cy="291.1" id="XMLID_461_" r="111.5"/><circle cx="293.8" cy="291.8" id="XMLID_460_" r="111.5"/><circle cx="294.6" cy="292.6" id="XMLID_459_" r="111.5"/><circle cx="295.3" cy="293.3" id="XMLID_458_" r="111.5"/><circle cx="296" cy="294" id="XMLID_457_" r="111.5"/><circle cx="296.7" cy="294.7" id="XMLID_456_" r="111.5"/><circle cx="297.4" cy="295.4" id="XMLID_455_" r="111.5"/><circle cx="298.1" cy="296.1" id="XMLID_454_" r="111.5"/><circle cx="298.8" cy="296.8" id="XMLID_453_" r="111.5"/><circle cx="299.5" cy="297.5" id="XMLID_452_" r="111.5"/><circle cx="300.2" cy="298.2" id="XMLID_451_" r="111.5"/><circle cx="300.9" cy="298.9" id="XMLID_450_" r="111.5"/><circle cx="301.6" cy="299.6" id="XMLID_449_" r="111.5"/><circle cx="302.3" cy="300.3" id="XMLID_448_" r="111.5"/><circle cx="303" cy="301" id="XMLID_447_" r="111.5"/><circle cx="303.7" cy="301.7" id="XMLID_446_" r="111.5"/><circle cx="304.5" cy="302.5" id="XMLID_445_" r="111.5"/><circle cx="305.2" cy="303.2" id="XMLID_444_" r="111.5"/><circle cx="305.9" cy="303.9" id="XMLID_443_" r="111.5"/><circle cx="306.6" cy="304.6" id="XMLID_442_" r="111.5"/><circle cx="307.3" cy="305.3" id="XMLID_441_" r="111.5"/><circle cx="308" cy="306" id="XMLID_440_" r="111.5"/><circle cx="308.7" cy="306.7" id="XMLID_439_" r="111.5"/><circle cx="309.4" cy="307.4" id="XMLID_438_" r="111.5"/><circle cx="310.1" cy="308.1" id="XMLID_437_" r="111.5"/><circle cx="310.8" cy="308.8" id="XMLID_436_" r="111.5"/><circle cx="311.5" cy="309.5" id="XMLID_435_" r="111.5"/><circle cx="312.2" cy="310.2" id="XMLID_434_" r="111.5"/><circle cx="312.9" cy="310.9" id="XMLID_433_" r="111.5"/><circle cx="313.6" cy="311.6" id="XMLID_432_" r="111.5"/><circle cx="314.4" cy="312.4" id="XMLID_431_" r="111.5"/><circle cx="315.1" cy="313.1" id="XMLID_430_" r="111.5"/><circle cx="315.8" cy="313.8" id="XMLID_429_" r="111.5"/><circle cx="316.5" cy="314.5" id="XMLID_428_" r="111.5"/><circle cx="317.2" cy="315.2" id="XMLID_427_" r="111.5"/><circle cx="317.9" cy="315.9" id="XMLID_426_" r="111.5"/><circle cx="318.6" cy="316.6" id="XMLID_425_" r="111.5"/><circle cx="319.3" cy="317.3" id="XMLID_424_" r="111.5"/><circle cx="320" cy="318" id="XMLID_423_" r="111.5"/><circle cx="320.7" cy="318.7" id="XMLID_422_" r="111.5"/><circle cx="321.4" cy="319.4" id="XMLID_421_" r="111.5"/><circle cx="322.1" cy="320.1" id="XMLID_420_" r="111.5"/><circle cx="322.8" cy="320.8" id="XMLID_419_" r="111.5"/><circle cx="323.5" cy="321.5" id="XMLID_418_" r="111.5"/><circle cx="324.2" cy="322.2" id="XMLID_417_" r="111.5"/><circle cx="325" cy="323" id="XMLID_416_" r="111.5"/><circle cx="325.7" cy="323.7" id="XMLID_415_" r="111.5"/><circle cx="326.4" cy="324.4" id="XMLID_414_" r="111.5"/><circle cx="327.1" cy="325.1" id="XMLID_413_" r="111.5"/><circle cx="327.8" cy="325.8" id="XMLID_412_" r="111.5"/><circle cx="328.5" cy="326.5" id="XMLID_411_" r="111.5"/><circle cx="329.2" cy="327.2" id="XMLID_410_" r="111.5"/><circle cx="329.9" cy="327.9" id="XMLID_409_" r="111.5"/><circle cx="330.6" cy="328.6" id="XMLID_408_" r="111.5"/><circle cx="331.3" cy="329.3" id="XMLID_407_" r="111.5"/><circle cx="332" cy="330" id="XMLID_406_" r="111.5"/><circle cx="332.7" cy="330.7" id="XMLID_405_" r="111.5"/><circle cx="333.4" cy="331.4" id="XMLID_404_" r="111.5"/><circle cx="334.1" cy="332.1" id="XMLID_403_" r="111.5"/><circle cx="334.9" cy="332.9" id="XMLID_402_" r="111.5"/><circle cx="335.6" cy="333.6" id="XMLID_401_" r="111.5"/><circle cx="336.3" cy="334.3" id="XMLID_400_" r="111.5"/><circle cx="337" cy="335" id="XMLID_399_" r="111.5"/><circle cx="337.7" cy="335.7" id="XMLID_398_" r="111.5"/><circle cx="338.4" cy="336.4" id="XMLID_397_" r="111.5"/><circle cx="339.1" cy="337.1" id="XMLID_396_" r="111.5"/><circle cx="339.8" cy="337.8" id="XMLID_395_" r="111.5"/><circle cx="340.5" cy="338.5" id="XMLID_394_" r="111.5"/><circle cx="341.2" cy="339.2" id="XMLID_393_" r="111.5"/><circle cx="341.9" cy="339.9" id="XMLID_392_" r="111.5"/><circle cx="342.6" cy="340.6" id="XMLID_391_" r="111.5"/><circle cx="343.3" cy="341.3" id="XMLID_390_" r="111.5"/><circle cx="344" cy="342" id="XMLID_389_" r="111.5"/><circle cx="344.8" cy="342.8" id="XMLID_388_" r="111.5"/><circle cx="345.5" cy="343.5" id="XMLID_387_" r="111.5"/><circle cx="346.2" cy="344.2" id="XMLID_386_" r="111.5"/><circle cx="346.9" cy="344.9" id="XMLID_385_" r="111.5"/><circle cx="347.6" cy="345.6" id="XMLID_384_" r="111.5"/><circle cx="348.3" cy="346.3" id="XMLID_383_" r="111.5"/><circle cx="349" cy="347" id="XMLID_382_" r="111.5"/><circle cx="349.7" cy="347.7" id="XMLID_381_" r="111.5"/><circle cx="350.4" cy="348.4" id="XMLID_380_" r="111.5"/><circle cx="351.1" cy="349.1" id="XMLID_379_" r="111.5"/><circle cx="351.8" cy="349.8" id="XMLID_378_" r="111.5"/><circle cx="352.5" cy="350.5" id="XMLID_377_" r="111.5"/><circle cx="353.2" cy="351.2" id="XMLID_376_" r="111.5"/><circle cx="353.9" cy="351.9" id="XMLID_375_" r="111.5"/><circle cx="354.6" cy="352.6" id="XMLID_374_" r="111.5"/><circle cx="355.4" cy="353.4" id="XMLID_373_" r="111.5"/><circle cx="356.1" cy="354.1" id="XMLID_372_" r="111.5"/><circle cx="356.8" cy="354.8" id="XMLID_371_" r="111.5"/><circle cx="357.5" cy="355.5" id="XMLID_370_" r="111.5"/><circle cx="358.2" cy="356.2" id="XMLID_369_" r="111.5"/><circle cx="358.9" cy="356.9" id="XMLID_368_" r="111.5"/><circle cx="359.6" cy="357.6" id="XMLID_367_" r="111.5"/><circle cx="360.3" cy="358.3" id="XMLID_366_" r="111.5"/><circle cx="361" cy="359" id="XMLID_365_" r="111.5"/><circle cx="361.7" cy="359.7" id="XMLID_364_" r="111.5"/><circle cx="362.4" cy="360.4" id="XMLID_363_" r="111.5"/><circle cx="363.1" cy="361.1" id="XMLID_362_" r="111.5"/><circle cx="363.8" cy="361.8" id="XMLID_361_" r="111.5"/><circle cx="364.5" cy="362.5" id="XMLID_360_" r="111.5"/><circle cx="365.3" cy="363.3" id="XMLID_359_" r="111.5"/><circle cx="366" cy="364" id="XMLID_358_" r="111.5"/><circle cx="366.7" cy="364.7" id="XMLID_357_" r="111.5"/><circle cx="367.4" cy="365.4" id="XMLID_356_" r="111.5"/><circle cx="368.1" cy="366.1" id="XMLID_355_" r="111.5"/><circle cx="368.8" cy="366.8" id="XMLID_354_" r="111.5"/><circle cx="369.5" cy="367.5" id="XMLID_353_" r="111.5"/><circle cx="370.2" cy="368.2" id="XMLID_352_" r="111.5"/><circle cx="370.9" cy="368.9" id="XMLID_351_" r="111.5"/><circle cx="371.6" cy="369.6" id="XMLID_350_" r="111.5"/><circle cx="372.3" cy="370.3" id="XMLID_349_" r="111.5"/><circle cx="373" cy="371" id="XMLID_348_" r="111.5"/><circle cx="373.7" cy="371.7" id="XMLID_347_" r="111.5"/><circle cx="374.4" cy="372.4" id="XMLID_346_" r="111.5"/><circle cx="375.1" cy="373.1" id="XMLID_345_" r="111.5"/><circle cx="375.9" cy="373.9" id="XMLID_344_" r="111.5"/><circle cx="376.6" cy="374.6" id="XMLID_343_" r="111.5"/><circle cx="377.3" cy="375.3" id="XMLID_342_" r="111.5"/><circle cx="378" cy="376" id="XMLID_341_" r="111.5"/><circle cx="378.7" cy="376.7" id="XMLID_340_" r="111.5"/><circle cx="379.4" cy="377.4" id="XMLID_339_" r="111.5"/><circle cx="380.1" cy="378.1" id="XMLID_338_" r="111.5"/><circle cx="380.8" cy="378.8" id="XMLID_337_" r="111.5"/><circle cx="381.5" cy="379.5" id="XMLID_336_" r="111.5"/><circle cx="382.2" cy="380.2" id="XMLID_335_" r="111.5"/><circle cx="382.9" cy="380.9" id="XMLID_334_" r="111.5"/><circle cx="383.6" cy="381.6" id="XMLID_333_" r="111.5"/><circle cx="384.3" cy="382.3" id="XMLID_332_" r="111.5"/><circle cx="385" cy="383" id="XMLID_331_" r="111.5"/><circle cx="385.8" cy="383.8" id="XMLID_330_" r="111.5"/><circle cx="386.5" cy="384.5" id="XMLID_329_" r="111.5"/><circle cx="387.2" cy="385.2" id="XMLID_328_" r="111.5"/><circle cx="387.9" cy="385.9" id="XMLID_327_" r="111.5"/><circle cx="388.6" cy="386.6" id="XMLID_326_" r="111.5"/><circle cx="389.3" cy="387.3" id="XMLID_325_" r="111.5"/><circle cx="390" cy="388" id="XMLID_324_" r="111.5"/><circle cx="390.7" cy="388.7" id="XMLID_323_" r="111.5"/><circle cx="391.4" cy="389.4" id="XMLID_322_" r="111.5"/><circle cx="392.1" cy="390.1" id="XMLID_321_" r="111.5"/><circle cx="392.8" cy="390.8" id="XMLID_320_" r="111.5"/><circle cx="393.5" cy="391.5" id="XMLID_319_" r="111.5"/><circle cx="394.2" cy="392.2" id="XMLID_318_" r="111.5"/><circle cx="394.9" cy="392.9" id="XMLID_317_" r="111.5"/><circle cx="395.7" cy="393.7" id="XMLID_316_" r="111.5"/><circle cx="396.4" cy="394.4" id="XMLID_315_" r="111.5"/><circle cx="397.1" cy="395.1" id="XMLID_314_" r="111.5"/><circle cx="397.8" cy="395.8" id="XMLID_313_" r="111.5"/><circle cx="398.5" cy="396.5" id="XMLID_312_" r="111.5"/><circle cx="399.2" cy="397.2" id="XMLID_311_" r="111.5"/><circle cx="399.9" cy="397.9" id="XMLID_310_" r="111.5"/><circle cx="400.6" cy="398.6" id="XMLID_309_" r="111.5"/><circle cx="401.3" cy="399.3" id="XMLID_308_" r="111.5"/><circle cx="402" cy="400" id="XMLID_307_" r="111.5"/><circle cx="402.7" cy="400.7" id="XMLID_306_" r="111.5"/><circle cx="403.4" cy="401.4" id="XMLID_305_" r="111.5"/><circle cx="404.1" cy="402.1" id="XMLID_304_" r="111.5"/><circle cx="404.8" cy="402.8" id="XMLID_303_" r="111.5"/><circle cx="405.5" cy="403.5" id="XMLID_302_" r="111.5"/><circle cx="406.3" cy="404.3" id="XMLID_301_" r="111.5"/><circle cx="407" cy="405" id="XMLID_300_" r="111.5"/><circle cx="407.7" cy="405.7" id="XMLID_299_" r="111.5"/><circle cx="408.4" cy="406.4" id="XMLID_298_" r="111.5"/><circle cx="409.1" cy="407.1" id="XMLID_297_" r="111.5"/><circle cx="409.8" cy="407.8" id="XMLID_296_" r="111.5"/><circle cx="410.5" cy="408.5" id="XMLID_295_" r="111.5"/><circle cx="411.2" cy="409.2" id="XMLID_294_" r="111.5"/><circle cx="411.9" cy="409.9" id="XMLID_293_" r="111.5"/><circle cx="412.6" cy="410.6" id="XMLID_292_" r="111.5"/><circle cx="413.3" cy="411.3" id="XMLID_291_" r="111.5"/><circle cx="414" cy="412" id="XMLID_290_" r="111.5"/><circle cx="414.7" cy="412.7" id="XMLID_289_" r="111.5"/><circle cx="415.4" cy="413.4" id="XMLID_288_" r="111.5"/><circle cx="416.2" cy="414.2" id="XMLID_287_" r="111.5"/><circle cx="416.9" cy="414.9" id="XMLID_286_" r="111.5"/><circle cx="417.6" cy="415.6" id="XMLID_285_" r="111.5"/><circle cx="418.3" cy="416.3" id="XMLID_284_" r="111.5"/><circle cx="419" cy="417" id="XMLID_283_" r="111.5"/><circle cx="419.7" cy="417.7" id="XMLID_282_" r="111.5"/><circle cx="420.4" cy="418.4" id="XMLID_281_" r="111.5"/><circle cx="421.1" cy="419.1" id="XMLID_280_" r="111.5"/><circle cx="421.8" cy="419.8" id="XMLID_279_" r="111.5"/><circle cx="422.5" cy="420.5" id="XMLID_278_" r="111.5"/><circle cx="423.2" cy="421.2" id="XMLID_277_" r="111.5"/><circle cx="423.9" cy="421.9" id="XMLID_276_" r="111.5"/><circle cx="424.6" cy="422.6" id="XMLID_275_" r="111.5"/><circle cx="425.3" cy="423.3" id="XMLID_274_" r="111.5"/><circle cx="426.1" cy="424.1" id="XMLID_273_" r="111.5"/><circle cx="426.8" cy="424.8" id="XMLID_272_" r="111.5"/><circle cx="427.5" cy="425.5" id="XMLID_271_" r="111.5"/><circle cx="428.2" cy="426.2" id="XMLID_270_" r="111.5"/><circle cx="428.9" cy="426.9" id="XMLID_269_" r="111.5"/><circle cx="429.6" cy="427.6" id="XMLID_268_" r="111.5"/><circle cx="430.3" cy="428.3" id="XMLID_267_" r="111.5"/><circle cx="431" cy="429" id="XMLID_266_" r="111.5"/><circle cx="431.7" cy="429.7" id="XMLID_265_" r="111.5"/><circle cx="432.4" cy="430.4" id="XMLID_264_" r="111.5"/><circle cx="433.1" cy="431.1" id="XMLID_263_" r="111.5"/><circle cx="433.8" cy="431.8" id="XMLID_262_" r="111.5"/><circle cx="434.5" cy="432.5" id="XMLID_261_" r="111.5"/><circle cx="435.2" cy="433.2" id="XMLID_260_" r="111.5"/><circle cx="435.9" cy="433.9" id="XMLID_259_" r="111.5"/><circle cx="436.7" cy="434.7" id="XMLID_258_" r="111.5"/><circle cx="437.4" cy="435.4" id="XMLID_257_" r="111.5"/><circle cx="438.1" cy="436.1" id="XMLID_256_" r="111.5"/><circle cx="438.8" cy="436.8" id="XMLID_255_" r="111.5"/><circle cx="439.5" cy="437.5" id="XMLID_254_" r="111.5"/><circle cx="440.2" cy="438.2" id="XMLID_253_" r="111.5"/><circle cx="440.9" cy="438.9" id="XMLID_252_" r="111.5"/><circle cx="441.6" cy="439.6" id="XMLID_251_" r="111.5"/><circle cx="442.3" cy="440.3" id="XMLID_250_" r="111.5"/><circle cx="443" cy="441" id="XMLID_249_" r="111.5"/><circle cx="443.7" cy="441.7" id="XMLID_248_" r="111.5"/><circle cx="444.4" cy="442.4" id="XMLID_247_" r="111.5"/><circle cx="445.1" cy="443.1" id="XMLID_246_" r="111.5"/><circle cx="445.8" cy="443.8" id="XMLID_245_" r="111.5"/><circle cx="446.6" cy="444.6" id="XMLID_244_" r="111.5"/><circle cx="447.3" cy="445.3" id="XMLID_243_" r="111.5"/><circle cx="448" cy="446" id="XMLID_242_" r="111.5"/><circle cx="448.7" cy="446.7" id="XMLID_241_" r="111.5"/><circle cx="449.4" cy="447.4" id="XMLID_240_" r="111.5"/><circle cx="450.1" cy="448.1" id="XMLID_239_" r="111.5"/><circle cx="450.8" cy="448.8" id="XMLID_238_" r="111.5"/><circle cx="451.5" cy="449.5" id="XMLID_237_" r="111.5"/><circle cx="452.2" cy="450.2" id="XMLID_236_" r="111.5"/><circle cx="452.9" cy="450.9" id="XMLID_235_" r="111.5"/><circle cx="453.6" cy="451.6" id="XMLID_234_" r="111.5"/><circle cx="454.3" cy="452.3" id="XMLID_233_" r="111.5"/><circle cx="455" cy="453" id="XMLID_232_" r="111.5"/><circle cx="455.7" cy="453.7" id="XMLID_231_" r="111.5"/><circle cx="456.5" cy="454.5" id="XMLID_230_" r="111.5"/><circle cx="457.2" cy="455.2" id="XMLID_229_" r="111.5"/><circle cx="457.9" cy="455.9" id="XMLID_228_" r="111.5"/><circle cx="458.6" cy="456.6" id="XMLID_227_" r="111.5"/><circle cx="459.3" cy="457.3" id="XMLID_226_" r="111.5"/><circle cx="460" cy="458" id="XMLID_225_" r="111.5"/><circle cx="460.7" cy="458.7" id="XMLID_224_" r="111.5"/><circle cx="461.4" cy="459.4" id="XMLID_223_" r="111.5"/><circle cx="462.1" cy="460.1" id="XMLID_222_" r="111.5"/><circle cx="462.8" cy="460.8" id="XMLID_221_" r="111.5"/><circle cx="463.5" cy="461.5" id="XMLID_220_" r="111.5"/><circle cx="464.2" cy="462.2" id="XMLID_219_" r="111.5"/><circle cx="464.9" cy="462.9" id="XMLID_218_" r="111.5"/><circle cx="465.6" cy="463.6" id="XMLID_217_" r="111.5"/><circle cx="466.3" cy="464.3" id="XMLID_216_" r="111.5"/><circle cx="467.1" cy="465.1" id="XMLID_215_" r="111.5"/><circle cx="467.8" cy="465.8" id="XMLID_214_" r="111.5"/><circle cx="468.5" cy="466.5" id="XMLID_213_" r="111.5"/><circle cx="469.2" cy="467.2" id="XMLID_212_" r="111.5"/><circle cx="469.9" cy="467.9" id="XMLID_211_" r="111.5"/><circle cx="470.6" cy="468.6" id="XMLID_210_" r="111.5"/><circle cx="471.3" cy="469.3" id="XMLID_209_" r="111.5"/><circle cx="472" cy="470" id="XMLID_208_" r="111.5"/><circle cx="472.7" cy="470.7" id="XMLID_207_" r="111.5"/><circle cx="473.4" cy="471.4" id="XMLID_206_" r="111.5"/><circle cx="474.1" cy="472.1" id="XMLID_205_" r="111.5"/><circle cx="474.8" cy="472.8" id="XMLID_204_" r="111.5"/><circle cx="475.5" cy="473.5" id="XMLID_203_" r="111.5"/><circle cx="476.2" cy="474.2" id="XMLID_202_" r="111.5"/><circle cx="477" cy="475" id="XMLID_201_" r="111.5"/><circle cx="477.7" cy="475.7" id="XMLID_200_" r="111.5"/><circle cx="478.4" cy="476.4" id="XMLID_199_" r="111.5"/><circle cx="479.1" cy="477.1" id="XMLID_198_" r="111.5"/><circle cx="479.8" cy="477.8" id="XMLID_197_" r="111.5"/><circle cx="480.5" cy="478.5" id="XMLID_196_" r="111.5"/><circle cx="481.2" cy="479.2" id="XMLID_195_" r="111.5"/><circle cx="481.9" cy="479.9" id="XMLID_194_" r="111.5"/><circle cx="482.6" cy="480.6" id="XMLID_193_" r="111.5"/><circle cx="483.3" cy="481.3" id="XMLID_192_" r="111.5"/><circle cx="484" cy="482" id="XMLID_191_" r="111.5"/><circle cx="484.7" cy="482.7" id="XMLID_190_" r="111.5"/><circle cx="485.4" cy="483.4" id="XMLID_189_" r="111.5"/><circle cx="486.1" cy="484.1" id="XMLID_188_" r="111.5"/><circle cx="486.9" cy="484.9" id="XMLID_187_" r="111.5"/><circle cx="487.6" cy="485.6" id="XMLID_186_" r="111.5"/><circle cx="488.3" cy="486.3" id="XMLID_185_" r="111.5"/><circle cx="489" cy="487" id="XMLID_184_" r="111.5"/><circle cx="489.7" cy="487.7" id="XMLID_183_" r="111.5"/><circle cx="490.4" cy="488.4" id="XMLID_182_" r="111.5"/><circle cx="491.1" cy="489.1" id="XMLID_181_" r="111.5"/><circle cx="491.8" cy="489.8" id="XMLID_180_" r="111.5"/><circle cx="492.5" cy="490.5" id="XMLID_179_" r="111.5"/><circle cx="493.2" cy="491.2" id="XMLID_178_" r="111.5"/><circle cx="493.9" cy="491.9" id="XMLID_177_" r="111.5"/><circle cx="494.6" cy="492.6" id="XMLID_176_" r="111.5"/><circle cx="495.3" cy="493.3" id="XMLID_175_" r="111.5"/><circle cx="496" cy="494" id="XMLID_174_" r="111.5"/><circle cx="496.7" cy="494.7" id="XMLID_173_" r="111.5"/><circle cx="497.5" cy="495.5" id="XMLID_172_" r="111.5"/><circle cx="498.2" cy="496.2" id="XMLID_171_" r="111.5"/><circle cx="498.9" cy="496.9" id="XMLID_170_" r="111.5"/><circle cx="499.6" cy="497.6" id="XMLID_169_" r="111.5"/><circle cx="500.3" cy="498.3" id="XMLID_168_" r="111.5"/><circle cx="501" cy="499" id="XMLID_167_" r="111.5"/><circle cx="501.7" cy="499.7" id="XMLID_166_" r="111.5"/><circle cx="502.4" cy="500.4" id="XMLID_165_" r="111.5"/><circle cx="503.1" cy="501.1" id="XMLID_164_" r="111.5"/><circle cx="503.8" cy="501.8" id="XMLID_163_" r="111.5"/><circle cx="504.5" cy="502.5" id="XMLID_162_" r="111.5"/><circle cx="505.2" cy="503.2" id="XMLID_161_" r="111.5"/><circle cx="505.9" cy="503.9" id="XMLID_160_" r="111.5"/><circle cx="506.6" cy="504.6" id="XMLID_159_" r="111.5"/><circle cx="507.4" cy="505.4" id="XMLID_158_" r="111.5"/><circle cx="508.1" cy="506.1" id="XMLID_157_" r="111.5"/><circle cx="508.8" cy="506.8" id="XMLID_156_" r="111.5"/><circle cx="509.5" cy="507.5" id="XMLID_155_" r="111.5"/><circle cx="510.2" cy="508.2" id="XMLID_154_" r="111.5"/><circle cx="510.9" cy="508.9" id="XMLID_153_" r="111.5"/><circle cx="511.6" cy="509.6" id="XMLID_152_" r="111.5"/><circle cx="512.3" cy="510.3" id="XMLID_151_" r="111.5"/><circle cx="513" cy="511" id="XMLID_150_" r="111.5"/><circle cx="513.7" cy="511.7" id="XMLID_149_" r="111.5"/><circle cx="514.4" cy="512.4" id="XMLID_148_" r="111.5"/><circle cx="515.1" cy="513.1" id="XMLID_147_" r="111.5"/><circle cx="515.8" cy="513.8" id="XMLID_146_" r="111.5"/><circle cx="516.5" cy="514.5" id="XMLID_145_" r="111.5"/><circle cx="517.3" cy="515.3" id="XMLID_144_" r="111.5"/><circle cx="518" cy="516" id="XMLID_143_" r="111.5"/><circle cx="518.7" cy="516.7" id="XMLID_142_" r="111.5"/><circle cx="519.4" cy="517.4" id="XMLID_141_" r="111.5"/><circle cx="520.1" cy="518.1" id="XMLID_140_" r="111.5"/><circle cx="520.8" cy="518.8" id="XMLID_139_" r="111.5"/><circle cx="521.5" cy="519.5" id="XMLID_138_" r="111.5"/><circle cx="522.2" cy="520.2" id="XMLID_137_" r="111.5"/><circle cx="522.9" cy="520.9" id="XMLID_136_" r="111.5"/><circle cx="523.6" cy="521.6" id="XMLID_135_" r="111.5"/><circle cx="524.3" cy="522.3" id="XMLID_134_" r="111.5"/><circle cx="525" cy="523" id="XMLID_133_" r="111.5"/><circle cx="525.7" cy="523.7" id="XMLID_132_" r="111.5"/><circle cx="526.4" cy="524.4" id="XMLID_131_" r="111.5"/><circle cx="527.1" cy="525.1" id="XMLID_130_" r="111.5"/><circle cx="527.9" cy="525.9" id="XMLID_129_" r="111.5"/><circle cx="528.6" cy="526.6" id="XMLID_128_" r="111.5"/><circle cx="529.3" cy="527.3" id="XMLID_127_" r="111.5"/><circle cx="530" cy="528" id="XMLID_126_" r="111.5"/><circle cx="530.7" cy="528.7" id="XMLID_125_" r="111.5"/><circle cx="531.4" cy="529.4" id="XMLID_124_" r="111.5"/><circle cx="532.1" cy="530.1" id="XMLID_123_" r="111.5"/><circle cx="532.8" cy="530.8" id="XMLID_122_" r="111.5"/><circle cx="533.5" cy="531.5" id="XMLID_121_" r="111.5"/><circle cx="534.2" cy="532.2" id="XMLID_120_" r="111.5"/><circle cx="534.9" cy="532.9" id="XMLID_119_" r="111.5"/><circle cx="535.6" cy="533.6" id="XMLID_118_" r="111.5"/><circle cx="536.3" cy="534.3" id="XMLID_117_" r="111.5"/><circle cx="537" cy="535" id="XMLID_116_" r="111.5"/><circle cx="537.8" cy="535.8" id="XMLID_115_" r="111.5"/><circle cx="538.5" cy="536.5" id="XMLID_114_" r="111.5"/><circle cx="539.2" cy="537.2" id="XMLID_113_" r="111.5"/><circle cx="539.9" cy="537.9" id="XMLID_112_" r="111.5"/><circle cx="540.6" cy="538.6" id="XMLID_111_" r="111.5"/><circle cx="541.3" cy="539.3" id="XMLID_110_" r="111.5"/><circle cx="542" cy="540" id="XMLID_109_" r="111.5"/><circle cx="542.7" cy="540.7" id="XMLID_108_" r="111.5"/><circle cx="543.4" cy="541.4" id="XMLID_107_" r="111.5"/><circle cx="544.1" cy="542.1" id="XMLID_106_" r="111.5"/><circle cx="544.8" cy="542.8" id="XMLID_105_" r="111.5"/><circle cx="545.5" cy="543.5" id="XMLID_104_" r="111.5"/><circle cx="546.2" cy="544.2" id="XMLID_103_" r="111.5"/><circle cx="546.9" cy="544.9" id="XMLID_102_" r="111.5"/><circle cx="547.6" cy="545.6" id="XMLID_101_" r="111.5"/><circle cx="548.4" cy="546.4" id="XMLID_100_" r="111.5"/><circle cx="549.1" cy="547.1" id="XMLID_99_" r="111.5"/><circle cx="549.8" cy="547.8" id="XMLID_98_" r="111.5"/><circle cx="550.5" cy="548.5" id="XMLID_97_" r="111.5"/><circle cx="551.2" cy="549.2" id="XMLID_96_" r="111.5"/><circle cx="551.9" cy="549.9" id="XMLID_95_" r="111.5"/><circle cx="552.6" cy="550.6" id="XMLID_94_" r="111.5"/><circle cx="553.3" cy="551.3" id="XMLID_93_" r="111.5"/><circle cx="554" cy="552" id="XMLID_92_" r="111.5"/><circle cx="554.7" cy="552.7" id="XMLID_91_" r="111.5"/><circle cx="555.4" cy="553.4" id="XMLID_90_" r="111.5"/><circle cx="556.1" cy="554.1" id="XMLID_89_" r="111.5"/><circle cx="556.8" cy="554.8" id="XMLID_88_" r="111.5"/><circle cx="557.5" cy="555.5" id="XMLID_87_" r="111.5"/><circle cx="558.3" cy="556.3" id="XMLID_86_" r="111.5"/><circle cx="559" cy="557" id="XMLID_85_" r="111.5"/><circle cx="559.7" cy="557.7" id="XMLID_84_" r="111.5"/><circle cx="560.4" cy="558.4" id="XMLID_83_" r="111.5"/><circle cx="561.1" cy="559.1" id="XMLID_82_" r="111.5"/><circle cx="561.8" cy="559.8" id="XMLID_81_" r="111.5"/><circle cx="562.5" cy="560.5" id="XMLID_80_" r="111.5"/><circle cx="563.2" cy="561.2" id="XMLID_79_" r="111.5"/><circle cx="563.9" cy="561.9" id="XMLID_78_" r="111.5"/><circle cx="564.6" cy="562.6" id="XMLID_77_" r="111.5"/><circle cx="565.3" cy="563.3" id="XMLID_76_" r="111.5"/><circle cx="566" cy="564" id="XMLID_75_" r="111.5"/><circle cx="566.7" cy="564.7" id="XMLID_74_" r="111.5"/><circle cx="567.4" cy="565.4" id="XMLID_73_" r="111.5"/><circle cx="568.2" cy="566.2" id="XMLID_72_" r="111.5"/><circle cx="568.9" cy="566.9" id="XMLID_71_" r="111.5"/><circle cx="569.6" cy="567.6" id="XMLID_70_" r="111.5"/><circle cx="570.3" cy="568.3" id="XMLID_69_" r="111.5"/><circle cx="571" cy="569" id="XMLID_68_" r="111.5"/><circle cx="571.7" cy="569.7" id="XMLID_67_" r="111.5"/><circle cx="572.4" cy="570.4" id="XMLID_66_" r="111.5"/><circle cx="573.1" cy="571.1" id="XMLID_65_" r="111.5"/><circle cx="573.8" cy="571.8" id="XMLID_64_" r="111.5"/><circle cx="574.5" cy="572.5" id="XMLID_63_" r="111.5"/><circle cx="575.2" cy="573.2" id="XMLID_62_" r="111.5"/><circle cx="575.9" cy="573.9" id="XMLID_61_" r="111.5"/><circle cx="576.6" cy="574.6" id="XMLID_60_" r="111.5"/><circle cx="577.3" cy="575.3" id="XMLID_59_" r="111.5"/><circle cx="578" cy="576" id="XMLID_58_" r="111.5"/><circle cx="578.8" cy="576.8" id="XMLID_57_" r="111.5"/><circle cx="579.5" cy="577.5" id="XMLID_56_" r="111.5"/><circle cx="580.2" cy="578.2" id="XMLID_55_" r="111.5"/><circle cx="580.9" cy="578.9" id="XMLID_54_" r="111.5"/><circle cx="581.6" cy="579.6" id="XMLID_53_" r="111.5"/><circle cx="582.3" cy="580.3" id="XMLID_52_" r="111.5"/><circle cx="583" cy="581" id="XMLID_51_" r="111.5"/><circle cx="583.7" cy="581.7" id="XMLID_50_" r="111.5"/><circle cx="584.4" cy="582.4" id="XMLID_49_" r="111.5"/><circle cx="585.1" cy="583.1" id="XMLID_48_" r="111.5"/><circle cx="585.8" cy="583.8" id="XMLID_47_" r="111.5"/><circle cx="586.5" cy="584.5" id="XMLID_46_" r="111.5"/><circle cx="587.2" cy="585.2" id="XMLID_45_" r="111.5"/><circle cx="587.9" cy="585.9" id="XMLID_44_" r="111.5"/><circle cx="588.7" cy="586.7" id="XMLID_43_" r="111.5"/><circle cx="589.4" cy="587.4" id="XMLID_42_" r="111.5"/><circle cx="590.1" cy="588.1" id="XMLID_41_" r="111.5"/><circle cx="590.8" cy="588.8" id="XMLID_40_" r="111.5"/><circle cx="591.5" cy="589.5" id="XMLID_39_" r="111.5"/><circle cx="592.2" cy="590.2" id="XMLID_38_" r="111.5"/><circle cx="592.9" cy="590.9" id="XMLID_37_" r="111.5"/><circle cx="593.6" cy="591.6" id="XMLID_36_" r="111.5"/><circle cx="594.3" cy="592.3" id="XMLID_35_" r="111.5"/><circle cx="595" cy="593" id="XMLID_34_" r="111.5"/><circle cx="595.7" cy="593.7" id="XMLID_33_" r="111.5"/><circle cx="596.4" cy="594.4" id="XMLID_32_" r="111.5"/><circle cx="597.1" cy="595.1" id="XMLID_31_" r="111.5"/><circle cx="597.8" cy="595.8" id="XMLID_30_" r="111.5"/><circle cx="598.6" cy="596.6" id="XMLID_29_" r="111.5"/><circle cx="599.3" cy="597.3" id="XMLID_28_" r="111.5"/><circle cx="600" cy="598" id="XMLID_27_" r="111.5"/><circle cx="600.7" cy="598.7" id="XMLID_26_" r="111.5"/><circle cx="601.4" cy="599.4" id="XMLID_25_" r="111.5"/><circle cx="602.1" cy="600.1" id="XMLID_24_" r="111.5"/><circle cx="602.8" cy="600.8" id="XMLID_23_" r="111.5"/><circle cx="603.5" cy="601.5" id="XMLID_21_" r="111.5"/></g></g><circle cx="258.5" cy="256.5" id="XMLID_1_" r="111.5"/><circle class="st2" cx="258.5" cy="256.5" id="XMLID_4_" r="54.5"/><g id="XMLID_7_"><path d="M234.7,270.2c0-7.1,4.1-12.1,10.6-14.9V255c-5.8-2.9-8.6-7.8-8.6-13c0-10.1,9.1-16.8,21-16.8   c13.9,0,19.7,8.1,19.7,15.3c0,5.1-2.7,10.2-8.6,13.1v0.3c5.8,2.2,10.9,7.1,10.9,14.8c0,10.8-9.1,18-22.9,18   C241.6,286.8,234.7,278.3,234.7,270.2z M265.4,269.8c0-5.2-3.8-8.3-9.3-9.8c-4.6,1.3-7.2,4.6-7.2,8.9c-0.1,4.3,3.2,8.3,8.4,8.3   C262.2,277.2,265.4,274,265.4,269.8z M249.8,241.6c0,4,3.7,6.6,8.4,8.1c3.2-0.9,6-3.8,6-7.6c0-3.7-2.1-7.3-7.2-7.3   C252.2,234.7,249.8,237.8,249.8,241.6z" id="XMLID_9_"/></g></svg>